# xmcd
#
# Track frame offsets:
#	150
#	23555
#	46454
#	52145
#	72693
#	92411
#	109489
#	125586
#	145813
#	166892
#
# Disc length: 2480 seconds
#
# Revision: 287291879
# Processed by: cddbd v1.5.2PL0 Copyright (c) Steve Scherf et al.
# Submitted via: EZCDAudioConverter 8.0.2.1
#
DISCID=9009ae0a
DTITLE=Mai Quốc Huy - Sến 3. Bỏ Tình Phu Thê
DYEAR=2011
DGENRE=Miscellaneous
TTITLE0=Nghiệt oan
TTITLE1=Yêu lầm em tôi
TTITLE2=Lời giới thiệu
TTITLE3=Chuyện tình tôi
TTITLE4=Bỏ Tình Phu Thê
TTITLE5=Nỗi đau muộn màng
TTITLE6=Tình yêu đổi lấy bạc tiền
TTITLE7=10 năm một chuyện tình
TTITLE8=Mỗi người một lối đi
TTITLE9=Đêm hoang
EXTD=
EXTT0=
EXTT1=
EXTT2=
EXTT3=
EXTT4=
EXTT5=
EXTT6=
EXTT7=
EXTT8=
EXTT9=
PLAYORDER=
